HIERARCHY
ROOT Hips
{
	OFFSET 0.000000 0.000000 0.000000
	CHANNELS 6 Xposition Yposition Zposition Zrotation Yrotation Xrotation 
	JOINT Spine
	{
		OFFSET 0.000000 0.070810 0.000000
		CHANNELS 3 Zrotation Yrotation Xrotation
		JOINT Spine1
		{
			OFFSET 0.000000 0.163955 0.000000
			CHANNELS 3 Zrotation Yrotation Xrotation
			JOINT Neck
			{
				OFFSET 0.000000 0.181226 0.000000
				CHANNELS 3 Zrotation Yrotation Xrotation
				JOINT Head
				{
					OFFSET 0.000000 0.133848 0.017271
					CHANNELS 3 Zrotation Yrotation Xrotation
					End Site
					{
						OFFSET 0.000000 0.172708 0.000000
					}
				}
			}
			JOINT LeftShoulder
			{
				OFFSET 0.034797 0.143131 -0.002358
				CHANNELS 3 Zrotation Yrotation Xrotation
				JOINT LeftArm
				{
					OFFSET 0.115628 0.000000 0.000000
					CHANNELS 3 Zrotation Yrotation Xrotation
					JOINT LeftForeArm
					{
						OFFSET 0.250837 0.000000 0.000000
						CHANNELS 3 Zrotation Yrotation Xrotation
						JOINT LeftHand
						{
							OFFSET 0.226791 0.000000 0.000000
							CHANNELS 3 Zrotation Yrotation Xrotation
							End Site
							{
								OFFSET 0.129531 0.000000 0.000000
							}
						}
					}
				}
			}
			JOINT RightShoulder
			{
				OFFSET -0.034258 0.143131 -0.002358
				CHANNELS 3 Zrotation Yrotation Xrotation
				JOINT RightArm
				{
					OFFSET -0.115628 0.000000 0.000000
					CHANNELS 3 Zrotation Yrotation Xrotation
					JOINT RightForeArm
					{
						OFFSET -0.250837 0.000000 0.000000
						CHANNELS 3 Zrotation Yrotation Xrotation
						JOINT RightHand
						{
							OFFSET -0.226791 0.000000 0.000000
							CHANNELS 3 Zrotation Yrotation Xrotation
							End Site
							{
								OFFSET -0.129531 0.000000 0.000000
							}
						}
					}
				}
			}
		}
	}
	JOINT LeftUpLeg
	{
		OFFSET 0.086354 0.000000 0.000000
		CHANNELS 3 Zrotation Yrotation Xrotation
		JOINT LeftLeg
		{
			OFFSET 0.000000 -0.389823 0.000000
			CHANNELS 3 Zrotation Yrotation Xrotation
			JOINT LeftFoot
			{
				OFFSET 0.000000 -0.357547 0.000000
				CHANNELS 3 Zrotation Yrotation Xrotation
				JOINT LeftToeBase
				{
					OFFSET 0.000000 -0.056130 0.129531
					CHANNELS 3 Zrotation Yrotation Xrotation
					End Site
					{
						OFFSET 0.000000 0.000000 0.034542
					}
				}
			}
		}
	}
	JOINT RightUpLeg
	{
		OFFSET -0.086354 0.000000 0.000000
		CHANNELS 3 Zrotation Yrotation Xrotation
		JOINT RightLeg
		{
			OFFSET 0.000000 -0.389823 0.000000
			CHANNELS 3 Zrotation Yrotation Xrotation
			JOINT RightFoot
			{
				OFFSET 0.000000 -0.357547 0.000000
				CHANNELS 3 Zrotation Yrotation Xrotation
				JOINT RightToeBase
				{
					OFFSET 0.000000 -0.056130 0.129531
					CHANNELS 3 Zrotation Yrotation Xrotation
					End Site
					{
						OFFSET 0.000000 0.000000 0.034542
					}
				}
			}
		}
	}
}
MOTION
Frames: 6
Frame Time: 0.010000
-0.150362 0.811777 -0.230322 -1.710323 -6.983557 -8.932733 4.582434 14.358598 12.414843 -4.792246 4.550477 -9.423198 -1.716912 -6.712178 18.389623 7.917528 -6.438160 -20.502693 8.859113 3.551600 11.914939 -63.642449 18.857318 -15.209209 -11.927594 -6.803747 -7.105023 19.364157 14.774852 -5.282298 -5.704298 3.996793 0.339602 41.795473 51.191536 5.598851 -4.064934 8.661491 -21.406371 6.142279 7.793934 -20.679410 2.178567 1.364157 -21.416439 2.394852 6.127719 72.029208 1.022081 0.180439 10.795204 0.000000 0.000000 0.000001 -1.476425 -0.097344 10.344119 6.415575 12.781122 10.299145 11.111020 -16.655936 -19.185088 0.000000 0.000000 0.000000 
-0.153417 0.811725 -0.230906 -1.699150 -6.951394 -8.907492 4.447166 14.054937 12.264670 -4.597718 4.461751 -9.417642 -1.576234 -6.521499 18.258267 7.546522 -6.248538 -20.358432 8.650084 3.453703 11.811901 -63.656568 18.612687 -14.484306 -11.740300 -6.914425 -7.459611 19.498905 14.634582 -5.643564 -5.674155 3.690951 0.584030 43.206941 51.062624 5.947532 -3.870959 9.186743 -20.628645 6.126423 8.130722 -19.881505 2.385253 1.647511 -21.228345 2.775583 6.258657 71.999753 0.905941 0.221108 9.714789 0.000000 0.000000 0.000001 -1.302473 -0.376813 10.209532 6.450076 12.786878 10.499089 10.725162 -16.483941 -19.094428 0.000000 0.000000 0.000003 
-0.156279 0.811650 -0.231397 -1.688444 -6.869849 -8.866076 4.269526 13.750279 12.006272 -4.460048 4.365553 -9.335719 -1.475458 -6.337909 18.199445 7.584827 -6.052714 -20.255460 8.631143 3.258165 11.715892 -63.827834 18.315240 -14.043440 -11.738630 -7.031450 -7.651162 19.855699 14.656913 -5.795947 -5.430663 3.347255 0.881418 44.722377 50.771160 7.147421 -4.053980 9.741200 -20.225286 6.070643 8.390816 -19.433762 2.535654 1.973943 -20.997849 3.505071 6.422802 71.899671 0.701917 -0.148565 8.683048 0.000000 0.000000 0.000001 -1.133336 -0.437629 10.019070 6.614735 12.808015 10.812830 10.300997 -16.580040 -19.058625 -0.000001 0.000000 0.000003 
-0.159041 0.811621 -0.231850 -1.682216 -6.735871 -8.844860 4.089946 13.362813 11.743162 -4.340252 4.242742 -9.188280 -1.308363 -6.169422 18.066479 7.557338 -5.857673 -20.133022 8.579482 3.084833 11.638284 -63.993738 17.883198 -13.605669 -11.814243 -7.068815 -7.729810 20.474335 14.554311 -5.819967 -5.128484 2.966302 1.151840 46.229699 50.383159 8.004610 -4.015729 10.471103 -19.594737 5.854518 8.691056 -18.781130 2.644854 2.302899 -20.644425 3.781706 6.421032 71.588227 0.582103 -0.180788 7.633591 0.000000 0.000000 0.000002 -0.943601 -0.548402 9.742782 6.850665 12.957326 11.298696 9.863522 -16.964219 -19.055135 0.000001 -0.000001 0.000001 
-0.161729 0.811562 -0.232324 -1.701934 -6.550554 -8.789169 3.902785 12.958004 11.435861 -4.199838 4.115126 -9.037232 -1.135350 -6.006639 17.940489 7.541892 -5.664542 -20.027953 8.481619 2.840225 11.539733 -64.173377 17.424100 -13.069909 -11.974678 -7.178152 -7.776541 21.056764 14.568847 -5.808635 -4.785355 2.503928 1.454412 47.998754 49.814972 9.607416 -4.347177 11.329092 -19.301376 5.645443 9.035544 -18.423333 2.804816 2.562785 -20.262770 4.255211 6.590959 71.199829 0.761679 -0.653632 6.573000 0.000000 0.000000 0.000000 -0.754967 -0.486619 9.404059 7.133998 12.904187 11.881114 9.327385 -17.154114 -18.985680 0.000001 0.000001 0.000001 
-0.164144 0.811632 -0.232492 -1.700930 -6.333983 -8.805826 3.751938 12.522432 11.115834 -4.123633 3.977554 -8.766000 -0.978365 -5.821212 17.834120 7.623944 -5.443933 -19.998059 8.379206 2.544873 11.445379 -64.553859 16.716877 -12.208377 -11.716199 -7.125315 -8.020478 21.429240 14.610444 -5.973494 -4.418371 1.938615 1.825695 49.853825 49.218784 11.301826 -4.646522 12.212862 -19.085157 5.921906 9.528895 -18.093522 2.822864 2.811907 -19.683238 5.041659 6.750002 70.649026 0.618499 -1.386494 5.319185 0.000000 0.000000 0.000001 -0.556864 0.238404 9.223228 7.393431 12.003062 12.238350 8.733679 -17.040421 -18.710851 -0.000001 0.000001 0.000001 
